<svg xmlns="http://www.w3.org/2000/svg" viewBox="0 0 1248.58 1423.32"><g id="Layer_2" data-name="Layer 2"><g id="Layer_1-2" data-name="Layer 1"><path d="M954.89,1101.57c6.12,8.5,12.38,16.51,17.92,25,19,29.14,30.76,61.38,38.31,95,5.27,23.51,8.46,47.5,12.53,71.29.49,2.85.7,5.75,1.09,9.08,8.37-3.35,16.34-6.75,24.46-9.77,32.7-12.13,66.34-20.37,101.22-22.39,25-1.45,48.83,3.38,70.3,17.16,7.32,4.7,12.84,10.77,14.37,19.63,3.28,19-13.77,34-32.76,28.93a46.16,46.16,0,0,1-8.14-3.07c-17.84-8.77-36.47-11.46-56.19-8.64-32.77,4.69-64.47,12.81-93.77,28.63a220,220,0,0,0-22.85,14.74c-7.14,5.08-14.52,9.12-23.55,8.57-16.64-1-27.86-14.34-28-32.3-.11-17.79.32-35.68-1.32-53.35-3.89-41.94-11.7-83.08-29.1-121.87-8.2-18.27-20.34-33.92-32.63-49.46-.81-1-3.19-1.58-4.57-1.25-53.31,12.54-107.64,19-161.69,27-28.19,4.2-56.61,6.86-85,9.83-4.84.51-5.74,2.62-6.27,6.72-4.8,37.32-10.77,74.45-20.56,110.82-6.69,24.87-16.68,48.41-31.45,69.72-.4.58-.68,1.24-1.27,2.34a23.7,23.7,0,0,0,3.73.47c32.2-1.47,63.81,3,95.23,9.39,3.37.69,6.81,1.12,10.19,1.8,17,3.44,27.4,17.42,24.52,33-2.93,15.74-18.07,25.4-35.18,22.08-17.64-3.42-35.08-8.21-52.85-10.62a258.63,258.63,0,0,0-111,8.91c-6,1.82-11.43,5.47-17,8.47-7.69,4.13-15.68,6.82-24.54,5.57A27.72,27.72,0,0,1,466,1402.54c-2.87-11.69,1.8-22.78,12-30.51,12.85-9.77,25.72-19.56,37.91-30.12,29.16-25.29,48.61-56.77,56.83-94.6,6-27.67,10.95-55.58,16.35-83.39a12.9,12.9,0,0,0-.11-2.27c-8.83.76-17.62,1.34-26.38,2.3-68.27,7.55-136.54,15.39-205.24,17.6-34.67,1.12-69.42-.17-104.14-.51-41.81-.41-83.56-1.83-125.06-7.58-11.87-1.64-23.78-3.13-35.71-4.2-19.36-1.73-38.56,1-57.46,4.41-8.24,1.49-16.14,3.8-24.59,2.7-9.81-1.29-12.4-6.49-8.87-15.65,4.7-12.22,14.66-19.52,23.74-27.86,19.94-18.31,40.38-36.17,59.15-55.63,29.76-30.83,46.29-69.11,57.6-109.88C154.58,922,155,876,149.4,829.5c-8.48-71.18-24.43-141-37.13-211.4a555.83,555.83,0,0,1-6.62-144c2.61-32.43,5.85-64.75,14-96.41C131,333.24,150,291.83,171.09,251.34c16.22-31.17,34.81-60.92,57.77-87.69Q305.11,74.74,415.58,35.81C459.84,20.18,505.73,11.94,552.11,6,617.48-2.36,683-.29,748.65,2.16,814,4.59,879.46,5.64,944.87,7.28c35.69.89,71.21,3.15,105.3,15,23.88,8.32,45.51,20.31,61.3,40.78,8.41,10.89,14.16,23,12.65,37.26-1.3,12.3-8.06,21-19.67,25.2s-22.23,1.46-31.25-6.9a32.3,32.3,0,0,1-6.26-7.51c-3.36-6-8.33-7.8-14.88-7.79-25.13.06-47.34,8.73-67.43,23.11a135.39,135.39,0,0,0-19.9,17.7c-20,21.41-25.45,46.2-16.19,74.17,6.64,20.07,18,37.55,32,52.78,20.18,21.89,41.7,42.56,62.92,63.48,53.33,52.58,102.07,109,144.84,170.59,33.94,48.86,51.69,103.41,57.66,162,4.59,45.09,3.59,90.05-7.17,134.39-15.15,62.37-45.56,116.68-86.76,165.48-51.22,60.68-115.72,102-188.74,131.15Zm-300.2-10.14c37.7-4.91,74.67-9.32,111.51-14.62,34.51-5,69-10.17,103.28-16.52,67.09-12.43,126.8-41.69,180.18-83.57,42.82-33.6,75.43-76,99.68-124.62,14.91-29.93,25.35-61.39,29.55-94.74,3.77-30,2.47-59.78-.5-89.75-4.57-46-19.21-88.28-45.42-126.3-29.66-43-63.19-83.08-99-121.09-24.51-26.06-50.85-50.41-76.33-75.56-25.65-25.31-48.23-52.82-63.42-85.94-17.4-37.92-20.44-76.22-3.91-115.08,11.69-27.49,31-48.91,55-66.35,1.51-1.1,3-2.27,5.51-4.23-2.53-.23-3.56-.38-4.58-.41-35.61-1-71.21-2.27-106.83-3q-67.61-1.41-135.22-2.13c-33.62-.31-67.31-1.15-100.86.41-49.9,2.31-98.75,12-146.78,25.62-60.89,17.22-114.13,47.85-158.39,93.15-31.71,32.46-56.9,69.78-77.56,110.17-15.58,30.47-29.47,61.65-38.62,94.7-7.43,26.88-10.59,54.48-13,82.23-4.44,50.67-2.31,100.92,7.6,150.85C189,687,201.7,749.27,208.26,812.63c5.8,56,4.55,111.31-10.41,166-13.51,49.39-34.79,94.31-71.23,131.11-2.78,2.8-5.71,5.45-9.37,8.93,2.94.4,4.5.71,6.08.8,14.15.83,28.3,1.88,42.46,2.38,61.58,2.19,123.19,4.43,184.74,0,39.86-2.84,79.66-6.66,119.45-10.33,26.59-2.46,53.14-5.37,79.7-8.2,15.51-1.66,31-3.56,47-5.4.46-7.34.87-14.38,1.35-21.41,1.42-21,2.57-42.07,4.47-63a59.51,59.51,0,0,1,5.06-18.26c3.5-7.95,10.31-12.11,19.12-12.14s15.35,4.28,19.2,12.08c1.74,3.52,2.62,7.52,3.5,11.39,5.48,24.32,5.52,49.05,5.37,73.79C654.67,1083.82,654.69,1087.24,654.69,1091.43Z"/><path d="M732.45,409.32c-6.9-1.44-18.86-2.91-30.15-6.5C679,395.4,669.38,373.57,668,352.08c-1.58-24.67,14.15-36.44,33.15-46,9.28-4.66,18.69-8.49,29.57-8a42.47,42.47,0,0,1,22.76,7.64c7,4.78,14.16,9.41,20.83,14.64,14.57,11.42,23.34,26.22,23.86,45.07.4,14.64-6.86,25.27-19.08,32.55C766.33,405.58,752.22,408.65,732.45,409.32Z"/></g></g></svg>